<svg width="25" height="24" viewBox="0 0 25 24" fill="none" xmlns="http://www.w3.org/2000/svg">
<path fill-rule="evenodd" clip-rule="evenodd" d="M21.705 4.65021H3.29449C2.57956 4.65021 2 5.27182 2 6.03862V17.9614C2 18.7282 2.57956 19.3498 3.29449 19.3498H21.705C22.4199 19.3498 22.9995 18.7282 22.9995 17.9614V6.03862C22.9995 5.27182 22.4199 4.65021 21.705 4.65021ZM19.051 12.8085C18.7262 12.8085 18.4631 13.0753 18.4631 13.4043C18.4631 13.7332 18.7262 14 19.051 14C19.3757 14 19.6388 13.7332 19.6388 13.4043C19.6388 13.0753 19.3757 12.8085 19.051 12.8085ZM19.051 11.4044C18.7262 11.4044 18.4631 11.6712 18.4631 12.0002C18.4631 12.3292 18.7262 12.596 19.051 12.596C19.3757 12.596 19.6388 12.3292 19.6388 12.0002C19.6388 11.6712 19.3757 11.4044 19.051 11.4044ZM17.69 11.4044C17.3652 11.4044 17.1021 11.6712 17.1021 12.0002C17.1021 12.3292 17.3652 12.596 17.69 12.596C18.0147 12.596 18.2778 12.3292 18.2778 12.0002C18.2778 11.6712 18.0147 11.4044 17.69 11.4044ZM20.4116 11.4044C20.0869 11.4044 19.8237 11.6712 19.8237 12.0002C19.8237 12.3292 20.0869 12.596 20.4116 12.596C20.7364 12.596 20.9995 12.3292 20.9995 12.0002C20.9995 11.6712 20.7364 11.4044 20.4116 11.4044ZM19.051 10C18.7262 10 18.4631 10.2668 18.4631 10.5958C18.4631 10.9247 18.7262 11.1915 19.051 11.1915C19.3757 11.1915 19.6388 10.9247 19.6388 10.5958C19.6388 10.2668 19.3757 10 19.051 10ZM16.3868 10.7998C16.3332 10.7998 16.2821 10.7891 16.2354 10.7678C16.1886 10.7465 16.1471 10.718 16.1116 10.6816C16.0761 10.6451 16.0484 10.6034 16.0276 10.5545C16.0069 10.5056 15.9965 10.454 15.9965 10.3989C15.9965 10.3438 16.0069 10.2914 16.0276 10.2434C16.0484 10.1954 16.0761 10.1527 16.1116 10.1162C16.1471 10.0798 16.1878 10.0514 16.2354 10.03C16.2821 10.0087 16.3332 9.99891 16.3868 9.99891C16.4405 9.99891 16.4915 10.0096 16.5383 10.03C16.585 10.0514 16.6266 10.0798 16.662 10.1162C16.6975 10.1527 16.7252 10.1945 16.746 10.2434C16.7668 10.2914 16.7763 10.3438 16.7763 10.3989C16.7763 10.454 16.7659 10.5065 16.746 10.5545C16.7261 10.6025 16.6975 10.6451 16.662 10.6816C16.6266 10.718 16.5859 10.7465 16.5383 10.7678C16.4915 10.7891 16.4405 10.7998 16.3868 10.7998ZM16.3868 10.7225C16.4275 10.7225 16.4664 10.7145 16.5019 10.6985C16.5374 10.6825 16.5686 10.6602 16.5954 10.6318C16.6222 10.6034 16.643 10.5687 16.6586 10.5296C16.6742 10.4905 16.6819 10.4469 16.6819 10.4007C16.6819 10.3545 16.6742 10.3109 16.6586 10.2718C16.643 10.2327 16.6222 10.198 16.5954 10.1696C16.5686 10.1411 16.5374 10.118 16.5019 10.1029C16.4664 10.0869 16.4284 10.0789 16.3868 10.0789C16.3453 10.0789 16.3072 10.0869 16.2717 10.1029C16.2362 10.1189 16.2051 10.1411 16.1782 10.1696C16.1514 10.198 16.1306 10.2327 16.115 10.2718C16.0995 10.3109 16.0917 10.3545 16.0917 10.4007C16.0917 10.4469 16.0995 10.4905 16.115 10.5296C16.1306 10.5687 16.1514 10.6034 16.1782 10.6318C16.2051 10.6602 16.2362 10.6834 16.2717 10.6985C16.3072 10.7145 16.3453 10.7225 16.3868 10.7225ZM16.2371 10.1714H16.4007C16.4535 10.1714 16.4941 10.1811 16.5218 10.2016C16.5495 10.222 16.5634 10.2558 16.5634 10.3038C16.5634 10.3429 16.553 10.3722 16.5331 10.3918C16.5132 10.4114 16.4846 10.422 16.4483 10.4265L16.5668 10.6247H16.4829L16.3686 10.43H16.3193V10.6247H16.2371V10.1714ZM16.392 10.3651H16.3202V10.2371H16.3937C16.405 10.2371 16.4154 10.2371 16.4258 10.2389C16.4361 10.2407 16.4457 10.2434 16.4543 10.2478C16.463 10.2522 16.4699 10.2585 16.4751 10.2665C16.4803 10.2745 16.4829 10.2851 16.4829 10.2985C16.4829 10.3136 16.4803 10.326 16.4751 10.3349C16.4699 10.3438 16.4638 10.35 16.4552 10.3545C16.4465 10.3589 16.437 10.3616 16.4266 10.3634C16.4154 10.3651 16.4041 10.3651 16.392 10.3651ZM8.36105 9.99979H9.57361V13.9998H8.36105V9.99979ZM4.99947 13.9998V9.9998H7.99062L7.68078 10.8709H6.21203V11.6807H7.3943L7.08445 12.5554H6.21203V13.9998H4.99947ZM10.4071 9.99979V13.9998H11.6197V12.5553H12.4921L12.8028 11.6807H11.6197V10.8709H13.0893L13.3983 9.99979H10.4071ZM15.6451 13.9998H16.8689L15.4503 9.99979H14.1902L12.7716 13.9998H13.9651L14.1166 13.4629H15.4867L15.6451 13.9998ZM14.8012 11.0273L15.2859 12.694H14.333L14.8012 11.0273Z" fill="#A5ACBB"/>
</svg>
