<svg width="31" height="43" viewBox="0 0 31 43" fill="none" xmlns="http://www.w3.org/2000/svg">
<g clip-path="url(#clip0_1289_256320)">
<path d="M29.1127 34.3038C29.9342 34.3038 30.3299 34.8195 30.3299 35.4131C30.3299 36.0067 29.9342 36.5224 29.1127 36.5224H27.8175V37.8895H27.2839V34.2978H29.1127V34.3038ZM29.1007 36.0427C29.5924 36.0427 29.8023 35.7429 29.8023 35.4191C29.8023 35.0953 29.5924 34.7955 29.1007 34.7955H27.8175V36.0367H29.1007V36.0427Z" fill="#A5ACBB"/>
<path d="M23.446 36.3365V34.2979H23.9797V36.3066C23.9797 36.9721 24.3635 37.4518 25.119 37.4518C25.8745 37.4518 26.2522 36.9721 26.2522 36.3066V34.2979H26.7919V36.3365C26.7919 37.224 26.2282 37.9495 25.119 37.9495C24.0097 37.9495 23.446 37.224 23.446 36.3365Z" fill="#A5ACBB"/>
<path d="M21.946 37.8894C20.8667 37.8894 20.0632 37.1339 20.0632 36.0966C20.0632 35.0592 20.8667 34.3037 21.946 34.3037H23.0313V34.8014H21.946C21.1605 34.8014 20.5969 35.335 20.5969 36.1025C20.5969 36.8701 21.1605 37.4037 21.946 37.4037H23.0313V37.9014H21.946V37.8894Z" fill="#A5ACBB"/>
<path d="M15.4595 37.8895V34.2978H16.9286C18.0139 34.2978 18.8174 35.0533 18.8174 36.0906C18.8174 37.128 18.0139 37.8835 16.9286 37.8835H15.4595V37.8895ZM15.9992 37.3918H16.9286C17.7141 37.3918 18.2777 36.8581 18.2777 36.0906C18.2777 35.3231 17.7141 34.7895 16.9286 34.7895H15.9992V37.3858V37.3918Z" fill="#A5ACBB"/>
<path d="M13.7689 37.8894C12.9894 37.8894 12.6296 37.3977 12.6296 36.8461V34.3037H13.1693V36.8281C13.1693 37.1279 13.3372 37.3917 13.7989 37.3917H15.0821V37.8894H13.7629H13.7689Z" fill="#A5ACBB"/>
<path d="M10.446 36.3604L12.3048 37.8834V37.8954H11.5613L9.6965 36.3364V37.8954H9.16284V34.3037H11.1176C11.8311 34.3037 12.2329 34.7774 12.2329 35.335C12.2329 35.8927 11.8311 36.3604 11.1176 36.3604H10.446ZM9.6965 34.8014V35.9107H11.0816C11.5133 35.9107 11.7112 35.6349 11.7112 35.347C11.7112 35.0592 11.5253 34.7954 11.0876 34.7954H9.6965V34.8014Z" fill="#A5ACBB"/>
<path d="M4.95386 36.0969C4.95386 34.9997 5.76933 34.2441 6.83664 34.2441C7.90395 34.2441 8.71942 34.9997 8.71942 36.0969C8.71942 37.1942 7.90995 37.9497 6.83664 37.9497C5.76333 37.9497 4.95386 37.1942 4.95386 36.0969ZM8.17977 36.0969C8.17977 35.2815 7.61014 34.7298 6.83664 34.7298C6.06314 34.7298 5.49351 35.2875 5.49351 36.0969C5.49351 36.9064 6.06314 37.4641 6.83664 37.4641C7.61014 37.4641 8.17977 36.9064 8.17977 36.0969Z" fill="#A5ACBB"/>
<path d="M4.34872 34.3038H4.85839L3.99495 37.8955H3.33538L2.54389 35.0114L1.7464 37.8955H1.08683L0.223389 34.3038H0.733059L1.43461 37.182L2.2201 34.3038H2.85569L3.64118 37.194L4.33673 34.3038H4.34872Z" fill="#A5ACBB"/>
<path d="M24.4113 33.3319V32.8342H26.5879C27.0196 32.8342 27.1815 32.5944 27.1815 32.3066C27.1815 32.0308 27.0136 31.7789 26.5879 31.7789H25.4066C24.7051 31.7789 24.3093 31.2992 24.3093 30.7596C24.3093 30.2199 24.7051 29.7402 25.4066 29.7402H27.5472V30.2379H25.4426C25.0109 30.2379 24.849 30.4778 24.849 30.7656C24.849 31.0414 25.0229 31.2932 25.4426 31.2932H26.6238C27.3254 31.2932 27.7151 31.7729 27.7151 32.3126C27.7151 32.8522 27.3254 33.3319 26.6238 33.3319H24.4113Z" fill="#A5ACBB"/>
<path d="M23.2717 29.7412H23.8534L23.5595 31.1323H23.1218L23.2717 29.7412Z" fill="#A5ACBB"/>
<path d="M21.9886 29.7402H22.5223V33.3319H22.0246L19.794 30.6097V33.3319H19.2664V29.7402H19.764L21.9886 32.4625V29.7402Z" fill="#A5ACBB"/>
<path d="M18.7687 30.2378H16.4662V31.2691H18.7207V31.7488H16.4662V32.2705C16.4662 32.5703 16.6341 32.8341 17.0958 32.8341H18.7687V33.3318H17.0778C16.2863 33.3318 15.9265 32.8341 15.9265 32.2705V29.7461H18.7687V30.2438V30.2378Z" fill="#A5ACBB"/>
<path d="M14.8841 29.7412H15.3518V33.3329H14.8121V30.6346L13.6908 32.0557H13.433L12.3057 30.6226V33.3329H11.7781V29.7412H12.2398L13.5649 31.4141L14.8841 29.7412Z" fill="#A5ACBB"/>
<path d="M7.56909 31.5403C7.56909 30.443 8.38456 29.6875 9.45187 29.6875C10.5192 29.6875 11.3347 30.443 11.3347 31.5403C11.3347 32.6376 10.5252 33.3931 9.45187 33.3931C8.37857 33.3931 7.56909 32.6376 7.56909 31.5403ZM10.795 31.5403C10.795 30.7248 10.2254 30.1732 9.45187 30.1732C8.67837 30.1732 8.10874 30.7308 8.10874 31.5403C8.10874 32.3498 8.67837 32.9074 9.45187 32.9074C10.2254 32.9074 10.795 32.3498 10.795 31.5403Z" fill="#A5ACBB"/>
<path d="M6.96395 29.7412H7.47363L6.61018 33.3329H5.95061L5.15912 30.4488L4.35564 33.3329H3.70206L2.83862 29.7412H3.34829L4.04984 32.6253L4.83533 29.7412H5.47692L6.26241 32.6373L6.96395 29.7412Z" fill="#A5ACBB"/>
<path fill-rule="evenodd" clip-rule="evenodd" d="M9.00854 24.584V28.6973H10.2917V27.2103H11.2091L11.5389 26.3109H10.2917V25.4774H11.8387L12.1685 24.584H9.00854Z" fill="#A5ACBB"/>
<path d="M13.8406 24.5841H12.5574V28.6974H13.8406V24.5841Z" fill="#A5ACBB"/>
<path fill-rule="evenodd" clip-rule="evenodd" d="M14.7234 24.584V28.6973H16.0006V27.2103H16.924L17.2538 26.3109H16.0006V25.4774H17.5536L17.8773 24.584H14.7234Z" fill="#A5ACBB"/>
<path fill-rule="evenodd" clip-rule="evenodd" d="M21.5448 28.6973H20.2496L20.0817 28.1457H18.6367L18.4748 28.6973H17.2156L18.7146 24.584H20.0457L21.5448 28.6973ZM19.8719 27.3542L19.3622 25.6393L18.8705 27.3542H19.8779H19.8719Z" fill="#A5ACBB"/>
<path d="M8.0437 42.5124V40.5097H10.1543C10.3402 40.5097 10.4841 40.4618 10.5861 40.3658C10.682 40.2699 10.73 40.144 10.73 40.0001C10.73 39.8562 10.682 39.7242 10.5861 39.6283C10.4901 39.5324 10.3462 39.4844 10.1603 39.4844H8.0437V38.9268H10.2023C10.4362 38.9268 10.634 38.9747 10.8019 39.0707C10.9698 39.1666 11.1017 39.2925 11.1857 39.4544C11.2756 39.6163 11.3176 39.7902 11.3176 39.9881C11.3176 40.1859 11.2756 40.3598 11.1857 40.5217C11.0957 40.6836 10.9698 40.8095 10.8019 40.9055C10.634 41.0014 10.4362 41.0494 10.2023 41.0494H8.63732V41.9668H11.2336V42.5244H8.0437V42.5124Z" fill="#A5ACBB"/>
<path d="M12.4905 42.3382C12.2027 42.1823 11.9749 41.9605 11.813 41.6787C11.6451 41.3968 11.5671 41.0791 11.5671 40.7133C11.5671 40.3475 11.6511 40.0297 11.813 39.7479C11.9809 39.4661 12.2027 39.2502 12.4905 39.0883C12.7784 38.9324 13.1021 38.8545 13.4559 38.8545C13.8097 38.8545 14.1395 38.9324 14.4273 39.0883C14.7151 39.2442 14.943 39.4661 15.1049 39.7479C15.2667 40.0297 15.3507 40.3475 15.3507 40.7133C15.3507 41.0791 15.2667 41.3968 15.1049 41.6787C14.943 41.9605 14.7151 42.1763 14.4273 42.3382C14.1395 42.4941 13.8157 42.5721 13.4559 42.5721C13.0961 42.5721 12.7784 42.4941 12.4905 42.3382ZM14.1275 41.8645C14.3254 41.7506 14.4753 41.6007 14.5832 41.3968C14.6911 41.199 14.7451 40.9711 14.7451 40.7133C14.7451 40.4555 14.6911 40.2276 14.5832 40.0297C14.4753 39.8319 14.3194 39.676 14.1275 39.562C13.9296 39.4481 13.7078 39.3941 13.4619 39.3941C13.2161 39.3941 12.9882 39.4481 12.7963 39.562C12.5985 39.676 12.4486 39.8259 12.3406 40.0297C12.2327 40.2276 12.1787 40.4555 12.1787 40.7133C12.1787 40.9711 12.2327 41.199 12.3406 41.3968C12.4486 41.5947 12.6045 41.7506 12.7963 41.8645C12.9942 41.9785 13.2161 42.0324 13.4619 42.0324C13.7078 42.0324 13.9356 41.9785 14.1275 41.8645Z" fill="#A5ACBB"/>
<path d="M15.7468 42.5124V40.5097H17.8575C18.0433 40.5097 18.1872 40.4618 18.2892 40.3658C18.3851 40.2699 18.4331 40.144 18.4331 40.0001C18.4331 39.8562 18.3851 39.7242 18.2892 39.6283C18.1932 39.5324 18.0493 39.4844 17.8635 39.4844H15.7468V38.9268H17.9054C18.1393 38.9268 18.3372 38.9747 18.505 39.0707C18.6729 39.1666 18.8048 39.2925 18.8888 39.4544C18.9787 39.6163 19.0207 39.7902 19.0207 39.9881C19.0207 40.1859 18.9787 40.3598 18.8888 40.5217C18.7989 40.6836 18.6729 40.8095 18.505 40.9055C18.3372 41.0014 18.1393 41.0494 17.9054 41.0494H16.3404V41.9668H18.9368V42.5244H15.7468V42.5124Z" fill="#A5ACBB"/>
<path d="M22.3673 41.0435C22.4633 41.1874 22.5113 41.3493 22.5113 41.5352C22.5113 41.7211 22.4693 41.871 22.3793 42.0209C22.2894 42.1708 22.1635 42.2907 21.9956 42.3747C21.8277 42.4646 21.6298 42.5066 21.408 42.5066H19.3093V41.9549H21.336C21.5219 41.9549 21.6658 41.907 21.7677 41.817C21.8637 41.7271 21.9116 41.6012 21.9116 41.4573C21.9116 41.3193 21.8577 41.2054 21.7557 41.1095C21.6538 41.0135 21.5039 40.9656 21.312 40.9656H19.3093V40.4499H21.312C21.4919 40.4499 21.6358 40.4019 21.7318 40.312C21.8337 40.2221 21.8817 40.1021 21.8817 39.9642C21.8817 39.8203 21.8337 39.7004 21.7318 39.6104C21.6298 39.5205 21.4859 39.4725 21.3 39.4725H19.3093V38.9209H21.372C21.5998 38.9209 21.7917 38.9629 21.9596 39.0528C22.1275 39.1428 22.2534 39.2567 22.3374 39.4066C22.4273 39.5565 22.4693 39.7184 22.4693 39.8983C22.4693 40.0781 22.4273 40.2281 22.3374 40.366C22.2474 40.5039 22.1155 40.6178 21.9356 40.7017C22.1335 40.7857 22.2774 40.8996 22.3673 41.0435Z" fill="#A5ACBB"/>
<path d="M23.0574 39.2446V38.9268H24.7363V39.2446H24.0827V40.7196H23.7109V39.2446H23.0574ZM26.5471 38.9268H26.8649V40.7196H26.5111V39.5444L26.0255 40.1919H25.8156L25.3239 39.5384V40.7196H24.9761V38.9268H25.2939L25.9235 39.7842L26.5531 38.9268H26.5471Z" fill="#A5ACBB"/>
<path d="M17.2282 6.0265L15.2795 6.57815L13.2228 6.02051L11.1542 7.59749L11.0103 9.45629L9.90698 11.411L10.7644 13.9174L12.7731 14.7089L13.8105 16.3338H16.7486L17.7859 14.7089L19.8006 13.9114L20.658 11.405L19.5547 9.45029L19.4108 7.59149L17.2342 6.02051L17.2282 6.0265ZM16.7366 13.0899H13.8165L12.899 10.2957L15.2735 8.57486L17.648 10.2957L16.7306 13.0899H16.7366Z" fill="#A5ACBB"/>
<path d="M17.3388 6.02327L15.3872 6.57683L13.3231 6.01389L11.2589 7.59014L11.1182 9.44788L10.0204 11.4088L10.8742 13.9139L12.8821 14.7021L13.9236 16.3252H16.8603L17.9018 14.7021L19.919 13.9046L20.7729 11.3994L19.6751 9.4385L19.5344 7.58076L17.3576 6.01389L17.3388 6.02327ZM16.8509 13.0883H13.9329L13.0134 10.2923L15.3872 8.56592L17.761 10.2923L16.8415 13.0883H16.8509Z" fill="#A5ACBB"/>
<path d="M11.212 15.2657L10.0579 16.9921L10.893 17.8177L11.972 18.2681L13.1261 16.5511L11.212 15.2657Z" fill="#A5ACBB"/>
<path d="M19.5533 15.2657L21.2797 16.4198L22.1054 15.5941L22.5558 14.5057L20.8388 13.3517L19.5533 15.2657Z" fill="#A5ACBB"/>
<path d="M19.5533 6.92467L20.7074 5.20767L19.8817 4.37263L18.7933 3.92227L17.6393 5.64865L19.5533 6.92467Z" fill="#A5ACBB"/>
<path d="M11.2121 6.92468L9.49511 5.77064L8.66006 6.60568L8.20969 7.68467L9.93609 8.83871L11.2121 6.92468Z" fill="#A5ACBB"/>
<path d="M9.93609 13.3517L8.20969 14.5057L8.66006 15.5847L9.48573 16.4198L11.212 15.2657L9.93609 13.3517Z" fill="#A5ACBB"/>
<path d="M17.6393 16.5511L18.7933 18.2681L19.8723 17.8271L20.7074 16.9921L19.5533 15.2657L17.6393 16.5511Z" fill="#A5ACBB"/>
<path d="M20.8388 8.83872L22.5558 7.69406L22.1148 6.60569L21.2797 5.78003L19.5533 6.92467L20.8388 8.83872Z" fill="#A5ACBB"/>
<path d="M13.1261 5.64865L11.9814 3.92227L10.893 4.37263L10.0579 5.19829L11.2121 6.92468L13.1261 5.64865Z" fill="#A5ACBB"/>
<path d="M9.4858 11.0995L7.44977 11.5029V12.6757L7.90014 13.7547L9.93609 13.3517L9.4858 11.0995Z" fill="#A5ACBB"/>
<path d="M15.3872 16.992L15.7907 19.028H16.9635L18.0425 18.5777L17.6393 16.5511L15.3872 16.992Z" fill="#A5ACBB"/>
<path d="M22.8654 8.43445L20.8388 8.83789L21.2798 11.0991L23.3158 10.6956V9.52282L22.8654 8.43445Z" fill="#A5ACBB"/>
<path d="M15.3875 5.1979L14.9841 3.16189H13.8112L12.7229 3.61225L13.1261 5.64865L15.3875 5.1979Z" fill="#A5ACBB"/>
<path d="M9.93617 8.83789L7.90014 8.43445L7.44977 9.51343V10.6862L9.4858 11.0995L9.93617 8.83789Z" fill="#A5ACBB"/>
<path d="M13.1261 16.5511L12.7229 18.5777L13.8019 19.028H14.9747L15.3872 16.992L13.1261 16.5511Z" fill="#A5ACBB"/>
<path d="M20.8388 13.3517L22.8654 13.7641L23.3158 12.6757V11.5029L21.2798 11.0991L20.8388 13.3517Z" fill="#A5ACBB"/>
<path d="M17.6393 5.64865L18.0522 3.61225L16.9638 3.16189H15.791L15.3875 5.1979L17.6393 5.64865Z" fill="#A5ACBB"/>
<path d="M4.28784 9.51365V12.6756L7.44977 12.6757V9.51343L4.28784 9.51365Z" fill="#A5ACBB"/>
<path d="M16.9635 19.028H13.8019L13.8016 22.19H16.9635L16.9635 19.028Z" fill="#A5ACBB"/>
<path d="M26.4778 9.52324L23.3158 9.52282L23.3159 12.6851H26.4778V9.52324Z" fill="#A5ACBB"/>
<path d="M13.8019 0L13.8112 3.16189H16.9638L16.9732 0H13.8019Z" fill="#A5ACBB"/>
<path d="M7.45008 12.6763L4.53209 13.8773L5.73307 16.8046L8.66006 15.5847L7.45008 12.6763Z" fill="#A5ACBB"/>
<path d="M10.8936 17.8173L9.67386 20.7447L12.6012 21.955L13.8019 19.028L10.8936 17.8173Z" fill="#A5ACBB"/>
<path d="M19.8834 17.8209L16.9619 19.0304L18.1715 21.9519L21.0929 20.7424L19.8834 17.8209Z" fill="#A5ACBB"/>
<path d="M23.3158 12.6757L22.1054 15.5941L25.0329 16.8046L26.2433 13.8867L23.3158 12.6757Z" fill="#A5ACBB"/>
<path d="M25.0329 5.39548L22.1148 6.60569L23.3159 9.52378L26.2432 8.31343L25.0329 5.39548Z" fill="#A5ACBB"/>
<path d="M18.1744 0.24418L16.9638 3.16189L19.8817 4.37263L21.0924 1.45452L18.1744 0.24418Z" fill="#A5ACBB"/>
<path d="M12.6012 0.24418L9.68318 1.45452L10.8935 4.3631L10.893 4.37263L13.8112 3.16189L12.6012 0.24418Z" fill="#A5ACBB"/>
<path d="M5.74582 5.38033L4.53529 8.30134L7.45633 9.51185L8.66686 6.59085L5.74582 5.38033Z" fill="#A5ACBB"/>
<path d="M8.66008 15.584L6.41764 17.817L8.6507 20.0595L10.8936 17.8173L8.66008 15.584Z" fill="#A5ACBB"/>
<path d="M22.1054 15.5941L19.8723 17.8271L22.1055 20.0598L24.3479 17.8268L22.1054 15.5941Z" fill="#A5ACBB"/>
<path d="M22.1148 2.13923L19.8817 4.37263L22.1148 6.60569L24.3479 4.37226L22.1148 2.13923Z" fill="#A5ACBB"/>
<path d="M10.8935 4.3631L8.66002 2.12984L6.42696 4.36287L8.66006 6.60568L9.49511 5.77064L10.0579 5.19829L10.893 4.37263L10.8935 4.3631Z" fill="#A5ACBB"/>
</g>
<defs>
<clipPath id="clip0_1289_256320">
<rect width="30.1065" height="42.5725" fill="white" transform="translate(0.223389)"/>
</clipPath>
</defs>
</svg>
