<svg width="25" height="24" viewBox="0 0 25 24" fill="none" xmlns="http://www.w3.org/2000/svg">
<path fill-rule="evenodd" clip-rule="evenodd" d="M13.4465 4H21.4636C22.1445 4 22.6965 4.59203 22.6965 5.32233L22.6965 7L20.9465 7C20.3942 7 19.9465 7.44772 19.9465 8V14C19.9465 14.5523 20.3942 15 20.9465 15H22.6965L22.6965 16.6776C22.6965 17.4079 22.1445 17.9999 21.4636 17.9999H13.4465V14.9298C15.2972 14.5787 16.6965 12.9528 16.6965 11C16.6965 9.04721 15.2972 7.42125 13.4465 7.0702V4ZM11.9465 4H3.92941C3.24851 4 2.69653 4.59203 2.69653 5.32233V7H4.44653C4.99882 7 5.44653 7.44772 5.44653 8V14C5.44653 14.5523 4.99882 15 4.44653 15H2.69653V16.6776C2.69653 17.4079 3.24851 17.9999 3.92941 17.9999H11.9465V14.9298C10.0959 14.5787 8.69653 12.9528 8.69653 11C8.69653 9.04721 10.0959 7.42125 11.9465 7.0702V4ZM2.69653 13.5H3.94653V8.5H2.69653V13.5ZM22.6965 13.5V8.5H21.4465V13.5H22.6965ZM10.1965 11C10.1965 9.88059 10.9323 8.93302 11.9465 8.61445V13.3855C10.9323 13.067 10.1965 12.1194 10.1965 11ZM15.1965 11C15.1965 9.88059 14.4608 8.93302 13.4465 8.61445V13.3855C14.4608 13.067 15.1965 12.1194 15.1965 11Z" fill="#A5ACBB"/>
</svg>
